PathFileType	4	(X/Y/Z)	34_1_24_p0_0-911_filt_butterworth.trc
DataRate	CameraRate	NumFrames	NumMarkers	Units	OrigDataRate	OrigDataStartFrame	OrigNumFrames
52.0	52.0	5	27	m	52.0	797	911
Frame#	Time	RHip			RKnee			RAnkle			RBigToe			RSmallToe			RHeel			LHip			LKnee			LAnkle			LBigToe			LSmallToe			LHeel			Neck			Head			Nose			RShoulder			RElbow			RWrist			RThumb			RIndex			RPinky			LShoulder			LElbow			LWrist			LThumb			LIndex			LPinky			
		X1	Y1	Z1	X2	Y2	Z2	X3	Y3	Z3	X4	Y4	Z4	X5	Y5	Z5	X6	Y6	Z6	X7	Y7	Z7	X8	Y8	Z8	X9	Y9	Z9	X10	Y10	Z10	X11	Y11	Z11	X12	Y12	Z12	X13	Y13	Z13	X14	Y14	Z14	X15	Y15	Z15	X16	Y16	Z16	X17	Y17	Z17	X18	Y18	Z18	X19	Y19	Z19	X20	Y20	Z20	X21	Y21	Z21	X22	Y22	Z22	X23	Y23	Z23	X24	Y24	Z24	X25	Y25	Z25	X26	Y26	Z26	X27	Y27	Z27	
797	15.326923076923077	0.3593482387341932	0.4561048806006403	1.025075070058032	0.3656277761348593	0.5865259151875148	1.390203185789472	0.3737934469268126	0.6895943833487612	1.7286803155585706	0.3466489304720089	0.5543705700005434	1.77619264688978	0.41865815256943734	0.5695410488228765	1.7782631138668656	0.35567619752732205	0.8124858188169861	1.8051291919362202	0.1699629800078196	0.4829953236912566	1.0294087894712933	0.17502729011090182	0.6413628840496373	1.4214314651244795	0.18298885405995108	0.7513690033298168	1.7688341322475105	0.18773506106013227	0.5376176266101496	1.7572201314455473	0.13932015826316352	0.5987884124543341	1.7678189314246024	0.19497510378009017	0.7837455652200669	1.798144793572846	0.27211294576595785	0.4195566475580035	0.5428818511181759	0.279285581757616	0.3253744381817423	0.3267069781109419	0.25268757703687006	0.263133741073854	0.45180645427320115	0.41177180771901556	0.40088000517561617	0.6218190977071139	0.4538418090292461	0.42382084599228825	0.8357778501179557	0.32424267891006386	0.22941008645793892	0.8688071247518288	0.2621932940859123	0.1509059460208408	0.8498427346195204	0.24283052586964154	0.17461629516866592	0.8631488096895569	0.25231805172068505	0.20361085665389592	0.9297908567447739	0.11916583504103374	0.41964104634722044	0.6237501459536045	0.08734499908091362	0.40597796190717395	0.8257636712257714	0.20819429725069746	0.2282009957052067	0.8623521225001998	0.2719807235156476	0.15288760377648733	0.8509356089606418	0.2767671772496827	0.1520308292610269	0.8627561019494405	0.26760531386709496	0.1728770568841509	0.913891661600999
798	15.346153846153848	0.35931733751985284	0.4560773278251258	1.0244597954586654	0.36393882129712996	0.5860896821067783	1.390177940399481	0.3737812121360884	0.6895354159936439	1.7286917853090793	0.34666196226327306	0.5542956747909134	1.776176866197406	0.41867670248373784	0.5696508485810432	1.7782979473868559	0.35520575945410016	0.8139806376687116	1.805786131150913	0.17000255462103053	0.48306679514762074	1.0293193854846656	0.17498953531301437	0.6414168865732088	1.421441412317276	0.18299288790126864	0.7513883908676096	1.7690284164288126	0.18668523030501538	0.5321269021380313	1.7552649783776815	0.13944422252648342	0.5983516922656641	1.7677112461323108	0.19496284720278212	0.7838392637147918	1.7981992721328404	0.27221249135796594	0.41915787724586195	0.54281370597885	0.2793314902073516	0.3256480327052448	0.3266860277632963	0.25155841153325653	0.26624115209999905	0.4516646409588727	0.41177819916637903	0.4008995229445341	0.6218132875331208	0.4527382944072422	0.4278441995929385	0.8362268966949205	0.32432386623903703	0.22978256106991096	0.8687940442237665	0.2621881978385235	0.15079556925013188	0.8499433776323919	0.24281868686330935	0.1748585098637408	0.863228821611066	0.2535123588851872	0.2004644234047032	0.9287852659462221	0.11923166965679183	0.4199489690836262	0.6238080344370585	0.08734433149060225	0.40586118479091626	0.8257361698694056	0.20845480245781345	0.2280055090256369	0.8622989850964564	0.2716965305520848	0.15213671078279917	0.8494208389925073	0.27668383931631885	0.1480052549950255	0.8630084507434818	0.26760715346763864	0.17287021551235615	0.913535523430402
799	15.365384615384617	0.3592353930573069	0.4561212292552508	1.0247240521663101	0.3640163334463964	0.5859868614948712	1.3901864000587552	0.3737752985718504	0.6895367250236246	1.7287216779506664	0.3462892945746927	0.5528448015125512	1.7756610056379607	0.41867010437554697	0.5696614740629908	1.7783386002527648	0.3538485810228042	0.8172387655046158	1.8078507833191937	0.17006630042921017	0.48287535983135993	1.0292760178083922	0.17503412849554018	0.6413847727360706	1.4211427283275504	0.18301363970624243	0.7514713996470744	1.7682391502541328	0.1858790885712922	0.5279629731636422	1.75377670007685	0.13959226565142793	0.5978496988132366	1.7675639002489525	0.1949629727558463	0.7838771431418681	1.7982206773253004	0.27189428005297045	0.41909145379375423	0.5430399419046551	0.27902130635360856	0.3247928498219328	0.3267572436886573	0.2512315584700215	0.2670994268251108	0.4516341440428321	0.41179437481095726	0.4008934529683067	0.621803705163125	0.45272835595903177	0.42785505280052394	0.8359424142451803	0.3245939675940496	0.23036049129029756	0.8688058511532016	0.26215197538509805	0.15076701555978592	0.8500285783948214	0.2430207228867906	0.17497445111001222	0.8634173718540452	0.25390552122326915	0.19921709823126987	0.9286310046405029	0.11928422034533707	0.4202281920768824	0.6238609522438985	0.08731039929274619	0.40580977976377774	0.8256083369038854	0.20836112940902107	0.2279098730330598	0.8622605568909162	0.2718133612566104	0.15212258818970342	0.8491973852623236	0.27648343252231605	0.1444278912742477	0.8633755145646677	0.2676678867451419	0.1729052966200473	0.9133661950437575
800	15.384615384615383	0.35920219510572904	0.45632689528450543	1.0258039863676385	0.3648741078759621	0.5860785203139847	1.3901996374009722	0.3737696957107244	0.6895954552870478	1.7287427484191888	0.345288835181171	0.5490318898508016	1.7742719553999176	0.41862700729906344	0.5694896390015924	1.7783947701468075	0.3523989505530718	0.8193583009719883	1.8102795654074626	0.17007224541244242	0.48283058470081475	1.0297275775025219	0.17525643318162643	0.6410866837876452	1.4200796893140135	0.18312424845695	0.7512059880201298	1.7653046551835188	0.1855938174501349	0.5266179701051642	1.7532682758257594	0.13918713241740216	0.5989751471552764	1.7679687999516056	0.19496540861220085	0.7838370998995329	1.7981798906904143	0.27073195266224304	0.42087983317651284	0.5439112503358736	0.27810044070477435	0.32167552686575857	0.3270114116755084	0.2512981632528117	0.26684879412361967	0.45166695842405724	0.41182050170740675	0.400869477207082	0.6218177551237003	0.4537480131950327	0.42397242135591917	0.8345664286367338	0.32504271314277805	0.230649370613736	0.8688055603979465	0.2620977883303907	0.15086181559511944	0.8500724942395891	0.243606626250719	0.17501119610234953	0.8636713732600689	0.2539901720875726	0.19878057200673382	0.9289621091873328	0.11908101059068288	0.4193031635345057	0.6238978826817106	0.08720927581791127	0.405912463543444	0.8258221505481702	0.20814461913630428	0.22788503564239626	0.8622615178062362	0.27258114614133	0.15313204789001975	0.8494648656601521	0.2761825240305119	0.14295236994938168	0.8636423502122613	0.2678162343009044	0.17291776892681804	0.913345152422057
801	15.403846153846152	0.35940614266078785	0.45672940589607736	1.0267666296218194	0.36537463356982447	0.586194907633101	1.3901950115657957	0.37377287609707066	0.6896612424861605	1.7287295919090104	0.3439768666126593	0.543968792564715	1.77241075924902	0.41856302787396105	0.5692013904079741	1.7783923654375429	0.35207376951539976	0.8194682147504309	1.8109719687087158	0.1700637492714429	0.4831898019430556	1.0309789377680982	0.17559979164111508	0.6405691687885698	1.4185481758098182	0.18333792691918938	0.7502469281949388	1.7609932597997384	0.1858351667042047	0.5280516289159589	1.7537153471368347	0.13769646249035145	0.603253437970799	1.7694835556045412	0.1949521178289363	0.7837158803413494	1.7980718823568764	0.2690455794452354	0.42530571062257466	0.5451313594617155	0.2768780388661501	0.3172678670439184	0.3274160146586673	0.251361570477862	0.26657917241837314	0.451703465496057	0.4118492589008722	0.40083030639261297	0.6218937388432193	0.45514370859982844	0.41864048532065623	0.8326427046525475	0.32567221646715694	0.23052441953149402	0.8687979268145072	0.26206602519457906	0.15100862512190957	0.8501053233718361	0.244240454858637	0.1750624965573767	0.8639360520715136	0.25406856803135375	0.19848250515012816	0.9298539388937648	0.11840113293495644	0.4160115133055645	0.6239439316593688	0.08715055637244316	0.40636995223945993	0.8267533304983954	0.2080867894300443	0.22797165600953667	0.862302766548572	0.2738797596380079	0.15514381799077412	0.849687640889062	0.27598297547341666	0.14377590571934845	0.8637413459535603	0.2680102782156222	0.17290515850775004	0.9133607992080524
